<svg xmlns="http://www.w3.org/2000/svg" width="25" height="25" viewBox="0 0 25 25">
    <g id="Groupe_72" data-name="Groupe 72" transform="translate(-2.25 -2.25)">
        <path id="Tracé_88" data-name="Tracé 88" d="M27.25,8.34a6.089,6.089,0,0,0-6.09-6.09H8.34A6.089,6.089,0,0,0,2.25,8.34V21.16a6.089,6.089,0,0,0,6.09,6.09H21.16a6.089,6.089,0,0,0,6.09-6.09Zm-1.923,0V21.16a4.167,4.167,0,0,1-4.167,4.167H8.34A4.167,4.167,0,0,1,4.173,21.16V8.34A4.167,4.167,0,0,1,8.34,4.173H21.16A4.167,4.167,0,0,1,25.327,8.34Z" fill="#fff" fill-rule="evenodd"/>
        <path id="Tracé_89" data-name="Tracé 89" d="M14.75,5.25a5.325,5.325,0,1,0,5.278,5.325A5.3,5.3,0,0,0,14.75,5.25Zm0,2.13a3.195,3.195,0,1,1-3.167,3.195A3.182,3.182,0,0,1,14.75,7.38Zm-7.389,15.4V21.516A1.357,1.357,0,0,1,8.1,20.3h0a12.546,12.546,0,0,1,5.658-1.349h1.973A12.546,12.546,0,0,1,21.394,20.3h0a1.357,1.357,0,0,1,.742,1.213v1.268a1.056,1.056,0,1,0,2.111,0V21.516A3.485,3.485,0,0,0,22.34,18.4a0,0,0,0,0,0,0,14.667,14.667,0,0,0-6.6-1.573H13.763a14.666,14.666,0,0,0-6.6,1.573,0,0,0,0,0,0,0,3.485,3.485,0,0,0-1.91,3.117v1.268a1.056,1.056,0,1,0,2.111,0Z" fill="#fff" fill-rule="evenodd"/>
    </g>
</svg>
