<svg xmlns="http://www.w3.org/2000/svg" width="14.667" height="16" viewBox="0 0 14.667 16">
    <path id="Tracé_87" data-name="Tracé 87" d="M90.875,66.667V65.458A1.429,1.429,0,0,0,89.438,64H85.225a1.428,1.428,0,0,0-1.433,1.458v1.208H80V68h.383a.668.668,0,0,1,.342.142.858.858,0,0,1,.163.375l.792,10.071c.063,1.225.063,1.413,1.5,1.413h8.308c1.438,0,1.438-.183,1.5-1.408l.792-10.067a.867.867,0,0,1,.162-.379A.668.668,0,0,1,94.283,68h.383V66.671H90.875Zm-6.208-1.208c0-.4.325-.625.738-.625h3.821c.413,0,.775.229.775.625v1.208H84.667Zm-.354,11.875-.429-8h.846l.438,8Zm3.483,0h-.917v-8H87.8Zm2.567,0h-.85l.438-8H90.8Z" transform="translate(-80 -64)" fill="#5b5b5b"/>
</svg>
