<svg id="Groupe_44" data-name="Groupe 44" xmlns="http://www.w3.org/2000/svg" xmlns:xlink="http://www.w3.org/1999/xlink" width="23.706" height="24.694" viewBox="0 0 23.706 24.694">
    <defs>
        <clipPath id="clip-path">
            <rect id="Rectangle_73" data-name="Rectangle 73" width="23.706" height="24.694" fill="none"/>
        </clipPath>
    </defs>
    <g id="Groupe_43" data-name="Groupe 43" transform="translate(0)" clip-path="url(#clip-path)">
        <path id="Tracé_72" data-name="Tracé 72" d="M21.524,0H2.461A2.461,2.461,0,0,0,0,2.461V21.524a2.461,2.461,0,0,0,2.461,2.461H21.524a2.461,2.461,0,0,0,2.461-2.461V2.461A2.461,2.461,0,0,0,21.524,0m1.425,21.524a1.427,1.427,0,0,1-1.425,1.426H2.461a1.427,1.427,0,0,1-1.426-1.426V2.461A1.427,1.427,0,0,1,2.461,1.035H21.524a1.427,1.427,0,0,1,1.425,1.426ZM19.833,10.411H16.166a.519.519,0,0,0-.507.412l-1.109,5.312L9.291,6.089a.518.518,0,0,0-.943.055L6.6,10.7H4.151a.518.518,0,0,0,0,1.035H6.96a.519.519,0,0,0,.484-.333L8.905,7.585,14.3,17.9a.519.519,0,0,0,.459.278.478.478,0,0,0,.071-.005.517.517,0,0,0,.435-.407l1.318-6.315h3.246a.518.518,0,0,0,0-1.035" transform="translate(-0.073 -0.161)"/>
    </g>
</svg>
