<svg xmlns="http://www.w3.org/2000/svg" width="24.661" height="24" viewBox="0 0 24.661 24">
    <g id="Groupe_51" data-name="Groupe 51" transform="translate(0)">
        <path id="Tracé_74" data-name="Tracé 74" d="M12.305,24A12.33,12.33,0,0,1,3.59,20.5a11.8,11.8,0,0,1,0-17A12.33,12.33,0,0,1,12.305,0a12.33,12.33,0,0,1,8.716,3.5,11.8,11.8,0,0,1,0,17A12.33,12.33,0,0,1,12.305,24Zm0-22a10.283,10.283,0,0,0-7.28,2.9,9.9,9.9,0,0,0,0,14.2,10.283,10.283,0,0,0,7.28,2.9,10.283,10.283,0,0,0,7.28-2.9,9.785,9.785,0,0,0,0-14.1A9.966,9.966,0,0,0,12.305,2Z" transform="translate(0.025)" fill="#fff"/>
        <path id="Tracé_75" data-name="Tracé 75" d="M12.025,18A.957.957,0,0,1,11,17V7a.957.957,0,0,1,1.025-1,.957.957,0,0,1,1.025,1V17A.957.957,0,0,1,12.025,18Z" transform="translate(0.305)" fill="#fff"/>
        <path id="Tracé_76" data-name="Tracé 76" d="M17.279,13H7.025a1,1,0,1,1,0-2H17.279a1,1,0,1,1,0,2Z" transform="translate(0.178)" fill="#fff"/>
    </g>
</svg>
