<svg xmlns="http://www.w3.org/2000/svg" width="12.416" height="11.529" viewBox="0 0 12.416 11.529">
    <path id="Tracé_95" data-name="Tracé 95" d="M4.1,2a.443.443,0,0,0-.355.177L1.089,5.725a.443.443,0,0,0,.011.546l5.765,7.095a.443.443,0,0,0,.688,0l5.765-7.095a.443.443,0,0,0,.011-.546L10.667,2.177A.443.443,0,0,0,10.312,2ZM2.33,5.547l2-2.661h.949L4.443,5.547Zm3.042,0L6.2,2.887H8.212l.831,2.661Zm3.64.887-1.8,4.92L5.4,6.434Zm-.77,4.675L9.957,6.434h2.084ZM9.973,5.547,9.141,2.887h.949l2,2.661Zm-7.6.887H4.459L6.174,11.11Z" transform="translate(-1 -2)" fill="#fff"/>
</svg>
