<svg id="a" xmlns="http://www.w3.org/2000/svg" viewBox="0 0 30 30"><path opacity="0.3" d="M25.53,0H4.44c-.7,0-1.27,.57-1.27,1.27V21.97H26.8V1.27C26.8,.57,26.23,0,25.53,0ZM7.82,7.87v11.08c-.01,.29-.24,.52-.52,.53-.3,.01-.55-.23-.56-.53V7.87c-.74-.2-1.31-.78-1.51-1.53-.3-1.14,.38-2.31,1.51-2.61v-.76c.01-.29,.24-.52,.52-.53,.3-.01,.55,.23,.56,.53v.76c.74,.2,1.31,.78,1.51,1.53,.3,1.14-.38,2.31-1.51,2.61Zm5.09,3.47v7.61s0,.03,0,.04c-.01,.3-.26,.54-.56,.53-.3-.01-.53-.27-.52-.57v-7.61c-.74-.2-1.31-.78-1.51-1.53-.3-1.14,.38-2.31,1.51-2.61V2.97c.01-.29,.24-.52,.52-.53,.3-.01,.55,.23,.56,.53V7.2c.74,.2,1.31,.78,1.51,1.53,.3,1.14-.38,2.31-1.51,2.61Zm5.16,4.13v3.48c-.01,.29-.24,.52-.52,.53-.3,.01-.55-.23-.56-.53v-3.48c-.74-.2-1.32-.78-1.51-1.53-.29-1.14,.38-2.31,1.51-2.61V2.97c.01-.29,.24-.52,.52-.53,.3-.01,.55,.23,.56,.53V11.33c.74,.2,1.32,.78,1.51,1.53,.3,1.14-.38,2.31-1.51,2.61Zm5.16-4.13v7.61s0,.03,0,.04c-.01,.3-.26,.54-.56,.53-.3-.01-.53-.27-.52-.57v-7.61c-.74-.2-1.31-.78-1.51-1.53-.3-1.14,.38-2.31,1.51-2.61V2.97c.01-.29,.24-.52,.52-.53,.3-.01,.55,.23,.56,.53V7.2c.74,.2,1.31,.78,1.51,1.53,.3,1.14-.38,2.31-1.51,2.61Zm-.57-3.11h-.01c-.57,0-1.03,.47-1.02,1.04,0,.57,.46,1.04,1.02,1.04,.57,0,1.03-.46,1.03-1.03,0-.57-.45-1.04-1.02-1.05Zm-10.28,0h-.01c-.57,0-1.03,.47-1.02,1.04,0,.57,.46,1.04,1.02,1.04,.57,0,1.03-.46,1.03-1.03s-.45-1.04-1.02-1.05Zm5.14,4.13h0c-.57,0-1.03,.47-1.03,1.04s.46,1.04,1.02,1.04c.57,0,1.03-.46,1.03-1.03,0-.57-.45-1.04-1.02-1.05ZM7.25,4.76h0c-.57,0-1.03,.47-1.03,1.04,0,.57,.46,1.04,1.02,1.04,.57,0,1.03-.46,1.03-1.03,0-.57-.45-1.04-1.02-1.05Zm.15,19.91h0c-1.17,0-2.11,.97-2.1,2.15s.95,2.14,2.12,2.13c1.16,0,2.1-.96,2.1-2.14s-.95-2.14-2.11-2.14Zm0,3.18h0c-.57,0-1.02-.47-1.02-1.05,0-.57,.47-1.04,1.03-1.03,.56,0,1.02,.47,1.02,1.04,0,.57-.46,1.04-1.03,1.04Zm15.42-3.18h0c-1.17,0-2.11,.97-2.1,2.15,0,1.18,.95,2.14,2.12,2.13,1.16,0,2.1-.96,2.1-2.14s-.95-2.14-2.11-2.14Zm0,3.18h0c-.57,0-1.02-.47-1.02-1.05,0-.57,.47-1.04,1.03-1.03,.56,0,1.02,.47,1.02,1.04,0,.57-.46,1.04-1.03,1.04Zm-10.28-3.18h0c-1.17,0-2.11,.97-2.1,2.15,0,1.18,.95,2.14,2.12,2.13,1.16,0,2.1-.96,2.1-2.14,0-1.18-.95-2.14-2.11-2.14Zm0,3.18h0c-.57,0-1.02-.47-1.02-1.05,0-.57,.47-1.04,1.03-1.03,.56,0,1.02,.47,1.02,1.04,0,.57-.46,1.04-1.03,1.04Zm5.14-3.18h0c-1.17,0-2.11,.97-2.1,2.15,0,1.18,.95,2.14,2.12,2.13,1.16,0,2.1-.96,2.1-2.14s-.95-2.14-2.11-2.14Zm0,3.18h0c-.57,0-1.02-.47-1.02-1.05,0-.57,.47-1.04,1.03-1.03,.56,0,1.02,.47,1.02,1.04,0,.57-.46,1.04-1.03,1.04Z" fill="currentColor"/><path d="M11.83,11.34v7.61c-.01,.3,.22,.56,.52,.57,.3,.01,.55-.23,.56-.53,0-.01,0-.03,0-.04v-7.61c1.13-.3,1.8-1.47,1.51-2.61-.19-.75-.77-1.33-1.51-1.53V2.97c-.01-.3-.26-.54-.56-.53-.28,.01-.51,.24-.52,.53V7.2c-1.13,.3-1.8,1.47-1.51,2.61,.19,.75,.77,1.33,1.51,1.53Zm.55-3.11h.01c.57,0,1.02,.48,1.02,1.05s-.47,1.04-1.03,1.03c-.56,0-1.02-.47-1.02-1.04,0-.57,.46-1.04,1.02-1.04Zm-5.65-.36v11.08c.01,.3,.26,.54,.56,.53,.28-.01,.51-.24,.52-.53V7.87c1.13-.3,1.8-1.47,1.51-2.61-.19-.75-.77-1.33-1.51-1.53v-.76c-.01-.3-.26-.54-.56-.53-.28,.01-.51,.24-.52,.53v.76c-1.13,.3-1.8,1.47-1.51,2.61,.19,.75,.77,1.33,1.51,1.53Zm.51-3.11h0c.57,0,1.02,.47,1.02,1.05,0,.57-.47,1.04-1.03,1.03-.56,0-1.02-.47-1.02-1.04,0-.57,.46-1.04,1.03-1.04Zm9.74,10.71v3.48c.01,.3,.26,.54,.56,.53,.28-.01,.51-.24,.52-.53v-3.48c1.13-.3,1.8-1.47,1.51-2.61-.19-.75-.77-1.33-1.51-1.53V2.97c-.01-.3-.26-.54-.56-.53-.28,.01-.51,.24-.52,.53V11.33c-1.13,.3-1.8,1.47-1.51,2.61,.19,.75,.77,1.33,1.51,1.53Zm.53-3.11h0c.57,0,1.02,.47,1.02,1.05,0,.57-.47,1.04-1.03,1.03-.56,0-1.02-.47-1.02-1.04s.46-1.04,1.03-1.04Zm4.63-1.01v7.61c-.01,.3,.22,.56,.52,.57,.3,.01,.55-.23,.56-.53,0-.01,0-.03,0-.04v-7.61c1.13-.3,1.8-1.47,1.51-2.61-.19-.75-.77-1.33-1.51-1.53V2.97c-.01-.3-.26-.54-.56-.53-.28,.01-.51,.24-.52,.53V7.2c-1.13,.3-1.8,1.47-1.51,2.61,.19,.75,.77,1.33,1.51,1.53Zm.51-3.11h.01c.57,0,1.02,.48,1.02,1.05,0,.57-.47,1.04-1.03,1.03-.56,0-1.02-.47-1.02-1.04,0-.57,.46-1.04,1.02-1.04ZM12.54,25.77c-.57,0-1.03,.46-1.03,1.03,0,.57,.45,1.04,1.02,1.05h0c.57,0,1.03-.47,1.03-1.04,0-.57-.46-1.04-1.02-1.04Zm10.28,0c-.57,0-1.03,.46-1.03,1.03,0,.57,.45,1.04,1.02,1.05h0c.57,0,1.03-.47,1.03-1.04,0-.57-.46-1.04-1.02-1.04ZM3.2,23.07v5.6c0,.7,.57,1.27,1.27,1.27H25.56c.7,0,1.27-.57,1.27-1.27v-5.6H3.2Zm4.21,5.88c-1.17,0-2.12-.95-2.12-2.13s.94-2.15,2.1-2.15h0c1.17,0,2.11,.96,2.11,2.14s-.94,2.14-2.1,2.14Zm5.14,0c-1.17,0-2.12-.95-2.12-2.13,0-1.18,.94-2.15,2.1-2.15h0c1.17,0,2.11,.96,2.11,2.14,0,1.18-.94,2.14-2.1,2.14Zm5.14,0c-1.17,0-2.12-.95-2.12-2.13,0-1.18,.94-2.15,2.1-2.15h0c1.17,0,2.11,.96,2.11,2.14s-.94,2.14-2.1,2.14Zm5.14,0c-1.17,0-2.12-.95-2.12-2.13,0-1.18,.94-2.15,2.1-2.15h0c1.17,0,2.11,.96,2.11,2.14s-.94,2.14-2.1,2.14Zm-5.14-3.18c-.57,0-1.03,.46-1.03,1.03,0,.57,.45,1.04,1.02,1.05h0c.57,0,1.03-.47,1.03-1.04,0-.57-.46-1.04-1.02-1.04Zm-10.28,0c-.57,0-1.03,.46-1.03,1.03,0,.57,.45,1.04,1.02,1.05h0c.57,0,1.03-.47,1.03-1.04,0-.57-.46-1.04-1.02-1.04Z" fill="currentColor"/></svg>