<svg xmlns="http://www.w3.org/2000/svg" viewBox="0 0 30 30"><path d="M19.52,30H10.47c-.83,0-1.5-.67-1.5-1.5v-7.86c-.01-.36-.32-.64-.68-.63-.34,.01-.61,.29-.63,.63v5.33H3.45v-4.24c0-3.93,3.19-7.12,7.12-7.12h8.85c3.93,0,7.12,3.19,7.12,7.12h0v4.24h-4.21v-5.33c-.01-.36-.32-.64-.68-.63-.34,.01-.61,.29-.63,.63v7.87c0,.83-.68,1.5-1.5,1.5Z" fill="currentColor"/><path opacity="0.3" d="M15.09,0c-3.7-.05-6.72,2.94-6.72,6.63,0,3.66,2.97,6.63,6.63,6.63,3.69,0,6.68-3.02,6.63-6.73S18.61,.05,15.09,0ZM7.67,29.08v-2.35c0-.42-.34-.76-.76-.76h-2.53c-.46,0-.84,.41-.76,.87,.36,2.1,2.05,2.78,3.12,2.99,.48,.1,.93-.26,.93-.75Zm14.66-2.35v2.37c0,.47,.41,.83,.88,.76,1.1-.17,2.84-.76,3.19-3.04,.07-.45-.3-.86-.76-.86h-2.54c-.42,0-.76,.34-.76,.76Z" fill="currentColor"/></svg>