<svg xmlns="http://www.w3.org/2000/svg" width="20.273" height="16" viewBox="0 0 20.273 16">
    <path id="Tracé_82" data-name="Tracé 82" d="M10.091,140l1.318-1.318-1.727-1.727-1.318,1.318v.636H9.455V140Zm5-8.182a.235.235,0,0,0-.375.011l-3.977,3.977a.258.258,0,1,0,.364.364l3.977-3.977A.235.235,0,0,0,15.091,131.818Zm.909,6.75v2.159A3.278,3.278,0,0,1,12.727,144H3.273a3.152,3.152,0,0,1-2.313-.96A3.152,3.152,0,0,1,0,140.727v-9.455a3.152,3.152,0,0,1,.96-2.312A3.152,3.152,0,0,1,3.273,128h9.455a3.126,3.126,0,0,1,1.33.284.344.344,0,0,1,.2.261.354.354,0,0,1-.1.33l-.557.557a.332.332,0,0,1-.364.091,2.021,2.021,0,0,0-.511-.068H3.273a1.751,1.751,0,0,0-1.284.534,1.751,1.751,0,0,0-.534,1.284v9.455a1.751,1.751,0,0,0,.534,1.284,1.751,1.751,0,0,0,1.284.534h9.455a1.824,1.824,0,0,0,1.818-1.818V139.3a.34.34,0,0,1,.1-.25l.727-.727a.341.341,0,0,1,.4-.08A.33.33,0,0,1,16,138.568Zm-1.091-8.386,3.273,3.273-7.636,7.636H7.273v-3.273Zm5.045,1.5-1.045,1.045-3.273-3.273,1.045-1.045a1.1,1.1,0,0,1,1.545,0l1.727,1.727a1.1,1.1,0,0,1,0,1.545Z" transform="translate(0 -128)" fill="#5b5b5b"/>
</svg>
