<svg xmlns="http://www.w3.org/2000/svg" width="23.985" height="25" viewBox="0 0 23.985 25">
    <path id="Tracé_73" data-name="Tracé 73" d="M11.993,0A12.261,12.261,0,0,0,0,12.5,12.261,12.261,0,0,0,11.993,25,12.261,12.261,0,0,0,23.985,12.5,12.261,12.261,0,0,0,11.993,0Zm0,.938A11.32,11.32,0,0,1,23.056,12.5,11.292,11.292,0,0,1,11.993,24.031,11.292,11.292,0,0,1,.929,12.5,11.32,11.32,0,0,1,11.993.938ZM6.716,7V19H16.31V15h.959v2l.78-.594L20.477,14.5,17.269,12v2H16.31V10L13.432,7Zm.959,1h4.8v3H15.35v3H11.513v1H15.35v3H7.675Zm5.756.406L14.961,10H13.432Z"/>
</svg>
