<svg id="Groupe_36" data-name="Groupe 36" xmlns="http://www.w3.org/2000/svg" xmlns:xlink="http://www.w3.org/1999/xlink" width="24.55" height="23.985" viewBox="0 0 24.55 23.985">
    <defs>
        <clipPath id="clip-path">
            <rect id="Rectangle_70" data-name="Rectangle 70" width="24.55" height="23.985" fill="none"/>
        </clipPath>
    </defs>
    <g id="Groupe_35" data-name="Groupe 35" clip-path="url(#clip-path)">
        <path id="Tracé_61" data-name="Tracé 61" d="M15.395,2.081h-.416V1.249a1.248,1.248,0,0,0-2.5,0v.832H4.993V1.249a1.248,1.248,0,0,0-2.5,0h0v.832H2.08A2.08,2.08,0,0,0,0,4.161H0V21.22A2.08,2.08,0,0,0,2.08,23.3H15.395a2.08,2.08,0,0,0,2.08-2.08V4.161A2.08,2.08,0,0,0,15.4,2.081Zm-2.081-.832a.416.416,0,0,1,.832,0V4.994h-.832Zm-9.986,0a.416.416,0,0,1,.832,0V4.994H3.328ZM16.642,21.22a1.248,1.248,0,0,1-1.248,1.248H2.08A1.248,1.248,0,0,1,.832,21.22V4.161A1.248,1.248,0,0,1,2.08,2.913H2.5v2.08H1.664v.832H5.87V4.993H4.993V2.913h7.49v2.08H11.65v.832H15.81V4.993h-.832V2.913h.416a1.248,1.248,0,0,1,1.248,1.248ZM10.817,5.825H6.657V4.993h4.161ZM5.408,7.49h-2.5a.416.416,0,0,0-.416.416v2.5a.416.416,0,0,0,.416.416h2.5a.416.416,0,0,0,.416-.416v-2.5a.416.416,0,0,0-.416-.416Zm-.416,2.5H3.328V8.322H4.993Zm2.5-2.5h7.489v.832H7.489Zm2.08,2.5h5.409v.832H9.57Zm-2.08,2.5h7.489v.832H7.489Zm2.08,2.5h5.409v.832H9.57Zm-4.16,2.5h-2.5a.416.416,0,0,0-.416.416v2.5a.416.416,0,0,0,.416.416h2.5a.416.416,0,0,0,.416-.416v-2.5A.416.416,0,0,0,5.409,17.475Zm-.416,2.5H3.328V18.308H4.993Zm.416-7.489h-2.5A.416.416,0,0,0,2.5,12.9v2.5a.416.416,0,0,0,.416.416h2.5a.416.416,0,0,0,.416-.416V12.9a.416.416,0,0,0-.416-.416m-.416,2.5H3.328V13.315H4.993Zm2.5,2.5h7.489v.832H7.489Zm2.08,2.5h5.409V20.8H9.57Z" transform="translate(0 0)"/>
        <path id="Tracé_62" data-name="Tracé 62" d="M25.863,32.263a.828.828,0,0,1-.3-.057l-1.238-.476a.838.838,0,0,1-.479-1.079l.2-.522a.138.138,0,0,0-.041-.154,4.96,4.96,0,0,1-.484-.461.131.131,0,0,0-.153-.033l-.511.228a.832.832,0,0,1-1.1-.423l-.539-1.214a.838.838,0,0,1,.422-1.1l.511-.228a.138.138,0,0,0,.079-.139,4.964,4.964,0,0,1-.018-.67.139.139,0,0,0-.087-.135l-.518-.2a.838.838,0,0,1-.478-1.079l.481-1.244a.832.832,0,0,1,1.077-.48l.519.2a.133.133,0,0,0,.149-.04,4.856,4.856,0,0,1,.46-.486.138.138,0,0,0,.032-.158l-.226-.513a.839.839,0,0,1,.426-1.108l1.206-.541a.822.822,0,0,1,.638-.017.83.83,0,0,1,.464.441l.227.513a.129.129,0,0,0,.136.079,5.116,5.116,0,0,1,.666-.018.128.128,0,0,0,.132-.087l.2-.521a.834.834,0,0,1,1.077-.481l1.237.482a.837.837,0,0,1,.479,1.078l-.2.521a.137.137,0,0,0,.041.154,5.08,5.08,0,0,1,.483.461.136.136,0,0,0,.155.033l.509-.228a.825.825,0,0,1,.639-.017.833.833,0,0,1,.463.44l.544,1.217a.839.839,0,0,1-.421,1.1l-.51.228a.137.137,0,0,0-.08.139,4.99,4.99,0,0,1,.019.669.136.136,0,0,0,.087.136l.524.2a.84.84,0,0,1,.463,1.072l-.475,1.244a.832.832,0,0,1-1.077.481l-.519-.2a.133.133,0,0,0-.15.041,4.847,4.847,0,0,1-.46.486.138.138,0,0,0-.031.158l.227.513a.838.838,0,0,1-.422,1.1l-1.21.542a.833.833,0,0,1-1.1-.424l-.227-.512a.135.135,0,0,0-.136-.08,5.012,5.012,0,0,1-.667.018.13.13,0,0,0-.132.088l-.2.52a.836.836,0,0,1-.778.537" transform="translate(-8.797 -8.35)" fill="#f6f6f6"/>
        <path id="Tracé_63" data-name="Tracé 63" d="M25.863,32.263a.838.838,0,0,1-.3-.057l-1.238-.476a.839.839,0,0,1-.48-1.079l.2-.521a.139.139,0,0,0-.041-.154,4.88,4.88,0,0,1-.483-.461.132.132,0,0,0-.154-.033l-.511.228a.833.833,0,0,1-1.1-.424l-.539-1.214a.838.838,0,0,1,.421-1.1l.511-.228a.138.138,0,0,0,.079-.139,4.959,4.959,0,0,1-.018-.67.137.137,0,0,0-.087-.134l-.518-.2a.838.838,0,0,1-.479-1.079l.481-1.244a.832.832,0,0,1,1.076-.48l.519.2a.134.134,0,0,0,.15-.04,4.854,4.854,0,0,1,.459-.486.138.138,0,0,0,.032-.158l-.226-.513a.84.84,0,0,1,.426-1.108l1.206-.541a.833.833,0,0,1,1.1.423l.227.513a.131.131,0,0,0,.136.08,5.023,5.023,0,0,1,.667-.018.129.129,0,0,0,.132-.087l.2-.521a.833.833,0,0,1,1.078-.481l1.237.482a.837.837,0,0,1,.478,1.078l-.2.521a.137.137,0,0,0,.041.154,5.01,5.01,0,0,1,.483.461.135.135,0,0,0,.154.033l.509-.228a.834.834,0,0,1,1.1.423l.544,1.217a.838.838,0,0,1-.421,1.1l-.51.228a.138.138,0,0,0-.08.139,4.986,4.986,0,0,1,.019.669.137.137,0,0,0,.087.136l.524.2a.841.841,0,0,1,.463,1.072l-.475,1.244a.833.833,0,0,1-1.078.481l-.519-.2a.132.132,0,0,0-.15.041,5.049,5.049,0,0,1-.46.486.137.137,0,0,0-.032.158l.227.513a.838.838,0,0,1-.422,1.1l-1.209.542a.833.833,0,0,1-1.1-.424l-.227-.512a.136.136,0,0,0-.136-.08,4.911,4.911,0,0,1-.666.019.129.129,0,0,0-.133.087l-.2.52a.831.831,0,0,1-.441.465.822.822,0,0,1-.337.072M23.423,28.77a.832.832,0,0,1,.615.272,4.277,4.277,0,0,0,.414.395.837.837,0,0,1,.248.941l-.2.522a.138.138,0,0,0,.079.176l1.238.476a.125.125,0,0,0,.1,0,.133.133,0,0,0,.071-.076l.2-.521A.82.82,0,0,1,27,30.42a4.062,4.062,0,0,0,.571-.016.832.832,0,0,1,.842.492l.227.512a.13.13,0,0,0,.075.072.128.128,0,0,0,.1,0l1.209-.542a.138.138,0,0,0,.068-.182l-.227-.513a.838.838,0,0,1,.2-.955,4.3,4.3,0,0,0,.394-.416.831.831,0,0,1,.941-.249l.52.2a.127.127,0,0,0,.1,0,.133.133,0,0,0,.072-.076l.475-1.244a.138.138,0,0,0-.073-.175l-.514-.2a.836.836,0,0,1-.532-.817,4.234,4.234,0,0,0-.016-.572.836.836,0,0,1,.489-.845l.511-.228a.138.138,0,0,0,.068-.181l-.544-1.216a.139.139,0,0,0-.076-.073.132.132,0,0,0-.1,0l-.509.228a.832.832,0,0,1-.955-.2,4.433,4.433,0,0,0-.415-.4.834.834,0,0,1-.247-.941l.2-.521a.137.137,0,0,0-.078-.176l-1.237-.482a.128.128,0,0,0-.1,0,.131.131,0,0,0-.071.075l-.2.522a.846.846,0,0,1-.814.535,4.158,4.158,0,0,0-.571.015.832.832,0,0,1-.842-.491l-.228-.513a.129.129,0,0,0-.075-.072.131.131,0,0,0-.1,0l-1.209.542a.139.139,0,0,0-.072.183l.228.516a.838.838,0,0,1-.2.955,4.316,4.316,0,0,0-.394.416.83.83,0,0,1-.94.249l-.519-.2a.131.131,0,0,0-.1,0,.135.135,0,0,0-.071.075l-.481,1.245a.137.137,0,0,0,.078.176l.519.2a.837.837,0,0,1,.533.815,4.214,4.214,0,0,0,.015.574.835.835,0,0,1-.489.843l-.511.228a.138.138,0,0,0-.068.181L22.4,29a.136.136,0,0,0,.076.072.132.132,0,0,0,.1,0l.511-.228a.829.829,0,0,1,.34-.073m3.756.223a2.858,2.858,0,1,1,2.847-2.858,2.856,2.856,0,0,1-2.847,2.858m0-5.018a2.159,2.159,0,1,0,2.148,2.159,2.156,2.156,0,0,0-2.148-2.159" transform="translate(-8.797 -8.35)"/>
        <path id="Tracé_64" data-name="Tracé 64" d="M25.863,32.263a.838.838,0,0,1-.3-.057l-1.238-.476a.839.839,0,0,1-.48-1.079l.2-.521a.139.139,0,0,0-.041-.154,4.88,4.88,0,0,1-.483-.461.132.132,0,0,0-.154-.033l-.511.228a.833.833,0,0,1-1.1-.424l-.539-1.214a.838.838,0,0,1,.421-1.1l.511-.228a.138.138,0,0,0,.079-.139,4.959,4.959,0,0,1-.018-.67.137.137,0,0,0-.087-.134l-.518-.2a.838.838,0,0,1-.479-1.079l.481-1.244a.832.832,0,0,1,1.076-.48l.519.2a.134.134,0,0,0,.15-.04,4.854,4.854,0,0,1,.459-.486.138.138,0,0,0,.032-.158l-.226-.513a.84.84,0,0,1,.426-1.108l1.206-.541a.833.833,0,0,1,1.1.423l.227.513a.131.131,0,0,0,.136.08,5.023,5.023,0,0,1,.667-.018.129.129,0,0,0,.132-.087l.2-.521a.833.833,0,0,1,1.078-.481l1.237.482a.837.837,0,0,1,.478,1.078l-.2.521a.137.137,0,0,0,.041.154,5.01,5.01,0,0,1,.483.461.135.135,0,0,0,.154.033l.509-.228a.834.834,0,0,1,1.1.423l.544,1.217a.838.838,0,0,1-.421,1.1l-.51.228a.138.138,0,0,0-.08.139,4.986,4.986,0,0,1,.019.669.137.137,0,0,0,.087.136l.524.2a.841.841,0,0,1,.463,1.072l-.475,1.244a.833.833,0,0,1-1.078.481l-.519-.2a.132.132,0,0,0-.15.041,5.049,5.049,0,0,1-.46.486.137.137,0,0,0-.032.158l.227.513a.838.838,0,0,1-.422,1.1l-1.209.542a.833.833,0,0,1-1.1-.424l-.227-.512a.136.136,0,0,0-.136-.08,4.911,4.911,0,0,1-.666.019.129.129,0,0,0-.133.087l-.2.52a.831.831,0,0,1-.441.465A.822.822,0,0,1,25.863,32.263ZM23.423,28.77a.832.832,0,0,1,.615.272,4.277,4.277,0,0,0,.414.395.837.837,0,0,1,.248.941l-.2.522a.138.138,0,0,0,.079.176l1.238.476a.125.125,0,0,0,.1,0,.133.133,0,0,0,.071-.076l.2-.521A.82.82,0,0,1,27,30.42a4.062,4.062,0,0,0,.571-.016.832.832,0,0,1,.842.492l.227.512a.13.13,0,0,0,.075.072.128.128,0,0,0,.1,0l1.209-.542a.138.138,0,0,0,.068-.182l-.227-.513a.838.838,0,0,1,.2-.955,4.3,4.3,0,0,0,.394-.416.831.831,0,0,1,.941-.249l.52.2a.127.127,0,0,0,.1,0,.133.133,0,0,0,.072-.076l.475-1.244a.138.138,0,0,0-.073-.175l-.514-.2a.836.836,0,0,1-.532-.817,4.234,4.234,0,0,0-.016-.572.836.836,0,0,1,.489-.845l.511-.228a.138.138,0,0,0,.068-.181l-.544-1.216a.139.139,0,0,0-.076-.073.132.132,0,0,0-.1,0l-.509.228a.832.832,0,0,1-.955-.2,4.433,4.433,0,0,0-.415-.4.834.834,0,0,1-.247-.941l.2-.521a.137.137,0,0,0-.078-.176l-1.237-.482a.128.128,0,0,0-.1,0,.131.131,0,0,0-.071.075l-.2.522a.846.846,0,0,1-.814.535,4.158,4.158,0,0,0-.571.015.832.832,0,0,1-.842-.491l-.228-.513a.129.129,0,0,0-.075-.072.131.131,0,0,0-.1,0l-1.209.542a.139.139,0,0,0-.072.183l.228.516a.838.838,0,0,1-.2.955,4.316,4.316,0,0,0-.394.416.83.83,0,0,1-.94.249l-.519-.2a.131.131,0,0,0-.1,0,.135.135,0,0,0-.071.075l-.481,1.245a.137.137,0,0,0,.078.176l.519.2a.837.837,0,0,1,.533.815,4.214,4.214,0,0,0,.015.574.835.835,0,0,1-.489.843l-.511.228a.138.138,0,0,0-.068.181L22.4,29a.136.136,0,0,0,.076.072.132.132,0,0,0,.1,0l.511-.228A.829.829,0,0,1,23.423,28.77Zm3.756.223a2.858,2.858,0,1,1,2.847-2.858A2.856,2.856,0,0,1,27.179,28.993Zm0-5.018a2.159,2.159,0,1,0,2.148,2.159A2.156,2.156,0,0,0,27.179,23.976Z" transform="translate(-8.797 -8.35)" fill="none" stroke="#000" stroke-miterlimit="10" stroke-width="0.25"/>
    </g>
</svg>
