<svg id="Groupe_1" data-name="Groupe 1" xmlns="http://www.w3.org/2000/svg" width="25" height="25" viewBox="0 0 25 25">
    <path id="Tracé_93" data-name="Tracé 93" d="M0,0H25V25H0Z" fill="rgba(65,28,28,0)"/>
    <path id="Tracé_94" data-name="Tracé 94" d="M13.019,18.469l1.4,1.4,4.954-4.954L14.421,9.963l-1.4,1.4,2.561,2.561H6v1.981h9.58ZM21.852,6H7.981A1.981,1.981,0,0,0,6,7.981v3.963H7.981V7.981h13.87v13.87H7.981V17.889H6v3.963a1.981,1.981,0,0,0,1.981,1.981h13.87a1.981,1.981,0,0,0,1.981-1.981V7.981A1.981,1.981,0,0,0,21.852,6Z" transform="translate(-2.417 -2.417)" fill="#009ef7"/>
</svg>
