<svg xmlns="http://www.w3.org/2000/svg" width="12.33" height="12" viewBox="0 0 12.33 12">
    <g id="Groupe_107" data-name="Groupe 107" transform="translate(0)">
        <path id="Tracé_74" data-name="Tracé 74" d="M6.14,12a6.165,6.165,0,0,1-4.358-1.75,5.9,5.9,0,0,1,0-8.5A6.165,6.165,0,0,1,6.14,0,6.165,6.165,0,0,1,10.5,1.75a5.9,5.9,0,0,1,0,8.5A6.165,6.165,0,0,1,6.14,12Zm0-11A5.142,5.142,0,0,0,2.5,2.45a4.952,4.952,0,0,0,0,7.1A5.142,5.142,0,0,0,6.14,11,5.142,5.142,0,0,0,9.78,9.55a4.893,4.893,0,0,0,0-7.05A4.983,4.983,0,0,0,6.14,1Z" transform="translate(0.025)"/>
        <path id="Tracé_75" data-name="Tracé 75" d="M11.513,12A.478.478,0,0,1,11,11.5v-5a.513.513,0,0,1,1.025,0v5A.478.478,0,0,1,11.513,12Z" transform="translate(-5.347 -3)"/>
        <path id="Tracé_76" data-name="Tracé 76" d="M11.64,12H6.513a.5.5,0,1,1,0-1H11.64a.5.5,0,1,1,0,1Z" transform="translate(-2.911 -5.5)"/>
    </g>
</svg>
