<svg xmlns="http://www.w3.org/2000/svg" width="24.107" height="25" viewBox="0 0 24.107 25">
    <path id="_14_Survey_Company_Building_Company" data-name="14 Survey Company, Building, Company" d="M28.661,27.214V8.911a.446.446,0,0,0-.446-.446H23.3V4.446A.446.446,0,0,0,22.857,4h-12.5a.446.446,0,0,0-.446.446v9.375H10.8V4.893H22.411V27.214H16.652v.893H29.107v-.893Zm-5.357,0V9.357h4.464V27.214ZM15.268,6.232H12.589a.446.446,0,0,0-.446.446V9.357a.446.446,0,0,0,.446.446h2.679a.446.446,0,0,0,.446-.446V6.679A.446.446,0,0,0,15.268,6.232Zm-.446,2.679H13.036V7.125h1.786Zm3.125.893h2.679a.446.446,0,0,0,.446-.446V6.679a.446.446,0,0,0-.446-.446H17.946a.446.446,0,0,0-.446.446V9.357A.446.446,0,0,0,17.946,9.8Zm.446-2.679h1.786V8.911H18.393Zm-2.679,4.911v2.705h-.893V12.482H13.036v1.339h-.893V12.036a.446.446,0,0,1,.446-.446h2.679A.446.446,0,0,1,15.714,12.036ZM17.5,14.714a.446.446,0,0,0,.446.446h2.679a.446.446,0,0,0,.446-.446V12.036a.446.446,0,0,0-.446-.446H17.946a.446.446,0,0,0-.446.446Zm.893-2.232h1.786v1.786H18.393ZM17.5,20.071a.446.446,0,0,0,.446.446h2.679a.446.446,0,0,0,.446-.446V17.393a.446.446,0,0,0-.446-.446H17.946a.446.446,0,0,0-.446.446Zm.893-2.232h1.786v1.786H18.393ZM17.5,25.429a.446.446,0,0,0,.446.446h2.679a.446.446,0,0,0,.446-.446V22.75a.446.446,0,0,0-.446-.446H17.946a.446.446,0,0,0-.446.446Zm.893-2.232h1.786v1.786H18.393Zm6.25-12.5h1.786v.893H24.643Zm0,2.679h1.786v.893H24.643Zm0,2.679h1.786v.893H24.643Zm0,2.679h1.786v.893H24.643Zm0,2.679h1.786V22.3H24.643Zm0,2.679h1.786v.893H24.643Zm-9.058-6.567-2.679-2.679a.446.446,0,0,0-.317-.129H6.339A1.339,1.339,0,0,0,5,16.054V27.661A1.339,1.339,0,0,0,6.339,29h8.036a1.339,1.339,0,0,0,1.339-1.339V17.839A.446.446,0,0,0,15.585,17.522Zm-2.549-1.286,1.156,1.156H13.036Zm1.786,11.424a.446.446,0,0,1-.446.446H6.339a.446.446,0,0,1-.446-.446V16.054a.446.446,0,0,1,.446-.446h5.8v2.232a.446.446,0,0,0,.446.446h2.232ZM7.679,19.179h5.357v.893H7.679Zm0,2.679h5.357v.893H7.679Zm0,2.679h5.357v.893H7.679Z" transform="translate(-5 -4)" fill="#fff"/>
</svg>
