<svg id="Groupe_39" data-name="Groupe 39" xmlns="http://www.w3.org/2000/svg" width="16.213" height="24.778" viewBox="0 0 16.213 24.778">
    <g id="Groupe_40" data-name="Groupe 40" transform="translate(0 0)">
        <path id="Tracé_65" data-name="Tracé 65" d="M11.126,11.239a6.029,6.029,0,1,0-6.04,0A6.41,6.41,0,0,0,0,17.5v4.245H0a2.94,2.94,0,0,0,3.03,3.029H13.18c.009,0,.015,0,.023,0s.015,0,.023,0a2.856,2.856,0,0,0,2.12-.8,3.39,3.39,0,0,0,.867-2.229h0V17.5a6.409,6.409,0,0,0-5.086-6.262M3.069,6.029a5.037,5.037,0,1,1,5.037,5.037A5.043,5.043,0,0,1,3.069,6.029M1.059,22.24H2.536v1.494A1.843,1.843,0,0,1,1.059,22.24m11.626,1.545H3.528V16.671a.5.5,0,0,0-.992,0v4.577H.992V17.5A5.414,5.414,0,0,1,6.4,12.094H9.813A5.413,5.413,0,0,1,15.221,17.5v3.747H13.676V16.671a.5.5,0,0,0-.992,0Zm.992-.037V22.24h1.483a2.09,2.09,0,0,1-.524,1.043,1.706,1.706,0,0,1-.958.465" fill="#fff"/>
    </g>
</svg>
