<svg xmlns="http://www.w3.org/2000/svg" viewBox="0 0 30 30"><path opacity="0.3" d="M23.57,2.68h-.54V1.61C23.04,.72,22.32,0,21.43,0c-.89,0-1.61,.72-1.61,1.61v1.07H10.18V1.61c0-.89-.72-1.61-1.61-1.61-.89,0-1.61,.72-1.61,1.61h0v1.07h-.54c-1.48,0-2.68,1.2-2.68,2.68h0V27.32c0,1.48,1.2,2.68,2.68,2.68H23.57c1.48,0,2.68-1.2,2.68-2.68V5.36c0-1.48-1.2-2.68-2.68-2.68Zm-2.68-1.07c0-.3,.24-.54,.54-.54s.54,.24,.54,.54V6.43h-1.07V1.61Zm-12.86,0c0-.3,.24-.54,.54-.54s.54,.24,.54,.54V6.43h-1.07V1.61Zm3.21,24.64c0,.3-.24,.54-.54,.54h-3.21c-.3,0-.54-.24-.54-.54v-3.21c0-.3,.24-.54,.54-.54h3.21c.3,0,.54,.24,.54,.54v3.21Zm0-6.43c0,.3-.24,.54-.54,.54h-3.21c-.3,0-.54-.24-.54-.54v-3.21c0-.3,.24-.54,.54-.54h3.21c.3,0,.54,.24,.54,.54v3.21Zm0-6.43c0,.3-.24,.54-.54,.54h-3.21c-.3,0-.54-.24-.54-.54v-3.21c0-.3,.24-.54,.54-.54h3.21c.3,0,.54,.24,.54,.54v3.21Zm1.07-6.96h5.36v1.07h-5.36v-1.07Zm10.71,20.36h-6.96v-1.07h6.96v1.07Zm0-3.21H13.39v-1.07h9.64v1.07Zm0-3.21h-6.96v-1.07h6.96v1.07Zm0-3.21H13.39v-1.07h9.64v1.07Zm0-3.21h-6.96v-1.07h6.96v1.07Zm0-3.21H13.39v-1.07h9.64v1.07Z" fill="currentColor"/><path d="M17.68,6.43h-5.36v1.07h5.36v-1.07Zm-6.96,3.21h-3.21c-.3,0-.54,.24-.54,.54v3.21c0,.3,.24,.54,.54,.54h3.21c.3,0,.54-.24,.54-.54v-3.21c0-.3-.24-.54-.54-.54Zm-.54,3.21h-2.14v-2.14h2.14v2.14Zm3.21-3.21v1.07h9.64v-1.07H13.39Zm2.68,4.29h6.96v-1.07h-6.96v1.07Zm-2.68,3.21h9.64v-1.07H13.39v1.07Zm2.68,3.21h6.96v-1.07h-6.96v1.07Zm-2.68,3.21h9.64v-1.07H13.39v1.07Zm2.68,3.21h6.96v-1.07h-6.96v1.07Zm-5.36-10.72h-3.21c-.3,0-.54,.24-.54,.54v3.21c0,.3,.24,.54,.54,.54h3.21c.3,0,.54-.24,.54-.54v-3.21c0-.3-.24-.54-.54-.54Zm-2.68,3.21v-2.14h2.14v2.14h-2.14Zm2.68,3.21h-3.21c-.3,0-.54,.24-.54,.54v3.21c0,.3,.24,.54,.54,.54h3.21c.3,0,.54-.24,.54-.54v-3.21c0-.3-.24-.54-.54-.54Zm-2.68,3.21v-2.14h2.14v2.14h-2.14Z" fill="currentColor"/></svg>