<svg id="Calque_3" data-name="Calque 3" xmlns="http://www.w3.org/2000/svg" viewBox="0 0 68.5 67.69"><defs><style>.cls-1{fill:#c8c8c8;}</style></defs><path class="cls-1" d="M0,0V67.68H68.55V0ZM66.72,65.87H1.82V1.82h64.9ZM38.21,32a3.09,3.09,0,1,0-3.09-3.08A3.08,3.08,0,0,0,38.21,32Zm0-4.11a1,1,0,1,1-1,1A1,1,0,0,1,38.21,27.86ZM24.64,44.72H44.38a1,1,0,0,0,1-1V24a1,1,0,0,0-1-1H24.64a1,1,0,0,0-1,1V43.69A1,1,0,0,0,24.64,44.72Zm18.71-2H41.62l-3.3-3.83,2.76-2.73,2.27,2.74ZM25.66,25H43.35V35.63l-1.41-1.69a1,1,0,0,0-.74-.37,1,1,0,0,0-.77.29L37,37.28,32,31.54a1,1,0,0,0-1.39-.16l-5,3.69Zm0,12.65,5.43-4,7.82,9.07H25.66Z"/></svg>