<svg id="Calque_3" data-name="Calque 3" xmlns="http://www.w3.org/2000/svg" viewBox="0 0 68.5 67.69"><defs><style>.cls-1{fill:#d8044c;}.cls-2{fill:#bfb300;}</style></defs><path class="cls-1" d="M17.89,13.48l4.18-2.32,4.18,2.32-.8-4.89L28.77,5.2l-4.59-.7L22.07,0,20,4.5l-4.59.7,3.32,3.39Zm3.56-7,.62-1.31.62,1.31,1.5.23L23.1,7.86l.25,1.5-1.27-.7-1.27.7.25-1.5L20,6.73ZM.26,63.56a2.92,2.92,0,0,0,2.68,4.13H3a3.11,3.11,0,0,0,1.13-.22L39.42,52.64,16.22,28.22Zm23-24.69a5.49,5.49,0,0,0,7.5,7.9l4.82,5.07L29.7,54.32a5.59,5.59,0,0,0-4.32-2.08,5.52,5.52,0,0,0-5.52,5.51h0c0,.22,0,.45,0,.67l-16.67,7a.79.79,0,0,1-.3,0,.72.72,0,0,1-.72-.72.73.73,0,0,1,.07-.29l1.08-2.4a5.35,5.35,0,0,0,1.05.11,5.5,5.5,0,0,0,5.52-5.51h0a5.55,5.55,0,0,0-2.15-4.38l3.08-6.83a5.48,5.48,0,0,0,6.8-5.36h0a5.57,5.57,0,0,0-2.35-4.5l1.58-3.49ZM68.5,40.5l-4.59-.7L61.8,35.3l-2.11,4.5-4.6.7,3.33,3.39-.8,4.88,4.18-2.3L66,48.79l-.8-4.88Zm-5.44,4.15L61.8,44l-1.27.7.24-1.5L59.68,42l1.5-.24.63-1.31.62,1.31,1.5.24-1.09,1.13ZM3.31,11.41H0v2.2H3.31Zm1.75-2L2.72,7.06,1.16,8.62,3.5,11Zm-3.89,7L2.73,18l2.34-2.34L3.51,14.07ZM7.72,5.89H5.52V9.2h2.2Zm.47,9.74L10.53,18l1.56-1.56L9.75,14.07Zm-.47.19H5.52v3.31h2.2Zm4.36-7.2L10.52,7.06,8.18,9.4,9.74,11ZM45.31,57.17l2.34,2.34L49.21,58l-2.34-2.34Zm7,7,2.34,2.34L56.22,65l-2.34-2.34Zm1.75-2h3.31V60H54.07Zm2.15-5-1.56-1.57L52.32,58l1.56,1.56ZM49.66,67.69h2.21V64.38H49.66ZM45.3,65l1.56,1.56,2.34-2.35-1.56-1.56Zm2.15-5H44.14v2.21h3.31Z"/><path class="cls-2" d="M11.82,11.64l-.37-.15-.81,2.06.37.15A15.74,15.74,0,0,1,18.57,20,15.89,15.89,0,0,1,21,28.42v.64h2.19v-.64a18.1,18.1,0,0,0-2.74-9.58A18,18,0,0,0,11.82,11.64Zm14.15,3-1-.78L23.62,15.6l1,.77a7.36,7.36,0,0,1,.79,11.08l-.85.84,1.56,1.56L27,29a9.49,9.49,0,0,0,2.8-6.76A9.6,9.6,0,0,0,26,14.61ZM48,49.06a11.68,11.68,0,0,0-8.32-3.44H38.63v2.2h1.09a9.5,9.5,0,0,1,6.76,2.8l.39.39a9.52,9.52,0,0,1,2.79,6.74h2.2a11.67,11.67,0,0,0-3.44-8.31ZM45.79,36.79a10.43,10.43,0,0,0-7.38,3l-.57.58L39.39,42l.58-.58a8.21,8.21,0,0,1,11.62,0l.58.58,1.56-1.56-.55-.56A10.35,10.35,0,0,0,45.79,36.79Zm2.81-22-1.15-2.06L46.3,14.83l-2.44,0,1.25,2.13-1.25,2.12,2.44,0,1.15,2.06L48.6,19l2.44,0-1.25-2.12L51,14.8ZM60.69,9.2l-8.87.08-4.37-7.8-4.37,7.8L34.21,9.2l4.51,7.73-4.51,7.72,8.87-.08,4.37,7.81,4.37-7.81,8.87.08-4.51-7.72ZM54.9,21.28l-5,0L47.45,25.6,45,21.24l-5,0,2.54-4.35L40,12.57l5,0,2.44-4.36,2.44,4.36,5,0-2.54,4.36Z"/></svg>