<?xml version="1.0" encoding="UTF-8"?><svg id="a" xmlns="http://www.w3.org/2000/svg" viewBox="0 0 250.41 25.27"><defs><style>.b{fill:#2189b0;}</style></defs><path d="M7.66,5.6H0V0H22.35V5.6h-7.63V24.95H7.66V5.6Z"/><path d="M26.81,23.99c-1.66-.86-2.96-2.04-3.9-3.56-.94-1.52-1.41-3.24-1.41-5.17s.47-3.61,1.41-5.13,2.23-2.7,3.89-3.55c1.65-.84,3.52-1.27,5.61-1.27s3.97,.42,5.63,1.27c1.66,.84,2.96,2.02,3.89,3.53,.93,1.51,1.39,3.23,1.39,5.15s-.46,3.65-1.39,5.17c-.93,1.52-2.22,2.71-3.89,3.56-1.66,.86-3.54,1.28-5.63,1.28s-3.93-.43-5.6-1.28Zm8.52-5.33c.76-.82,1.14-1.96,1.14-3.4s-.38-2.54-1.14-3.35c-.76-.81-1.74-1.21-2.92-1.21s-2.16,.4-2.92,1.21c-.76,.81-1.14,1.92-1.14,3.35s.38,2.58,1.14,3.4c.76,.82,1.73,1.23,2.92,1.23s2.16-.41,2.92-1.23Z"/><path class="b" d="M46.34,12.19h10.41v5.2h-10.41v-5.2Z"/><path class="b" d="M83.48,24.95l-.07-13.22-6.42,10.76h-3.14l-6.38-10.41v12.87h-6.52V0h5.81l8.77,14.4L84.09,0h5.81l.07,24.95h-6.49Z"/><path class="b" d="M114.28,17h-14.04c.29,1,.84,1.76,1.66,2.3,.82,.53,1.85,.8,3.08,.8,.93,0,1.73-.13,2.41-.39,.68-.26,1.36-.69,2.05-1.28l3.57,3.71c-1.88,2.09-4.62,3.14-8.23,3.14-2.26,0-4.24-.43-5.95-1.28s-3.04-2.04-3.97-3.56c-.94-1.52-1.41-3.24-1.41-5.17s.46-3.61,1.37-5.12c.91-1.51,2.18-2.69,3.8-3.55s3.43-1.28,5.45-1.28,3.67,.4,5.24,1.19c1.57,.8,2.81,1.95,3.73,3.46,.91,1.51,1.37,3.3,1.37,5.37,0,.05-.04,.61-.11,1.67Zm-12.82-5.99c-.7,.59-1.15,1.4-1.34,2.42h7.91c-.19-1.02-.64-1.83-1.34-2.42-.7-.59-1.57-.89-2.62-.89s-1.92,.3-2.62,.89Z"/><path class="b" d="M137.16,17h-14.04c.29,1,.84,1.76,1.66,2.3,.82,.53,1.85,.8,3.08,.8,.93,0,1.73-.13,2.41-.39,.68-.26,1.36-.69,2.05-1.28l3.57,3.71c-1.88,2.09-4.62,3.14-8.23,3.14-2.26,0-4.24-.43-5.95-1.28s-3.04-2.04-3.97-3.56c-.94-1.52-1.41-3.24-1.41-5.17s.46-3.61,1.37-5.12c.91-1.51,2.18-2.69,3.8-3.55s3.43-1.28,5.45-1.28,3.67,.4,5.24,1.19c1.57,.8,2.81,1.95,3.73,3.46,.91,1.51,1.37,3.3,1.37,5.37,0,.05-.04,.61-.11,1.67Zm-12.82-5.99c-.7,.59-1.15,1.4-1.34,2.42h7.91c-.19-1.02-.64-1.83-1.34-2.42-.7-.59-1.57-.89-2.62-.89s-1.92,.3-2.62,.89Z"/><path class="b" d="M153.74,24.17c-.57,.36-1.27,.63-2.08,.82-.82,.19-1.69,.29-2.62,.29-2.52,0-4.46-.62-5.81-1.85-1.35-1.24-2.03-3.08-2.03-5.52v-6.49h-2.82V6.34h2.82V1.32h6.77V6.34h4.42v5.06h-4.42v6.42c0,.69,.18,1.23,.55,1.62,.37,.39,.86,.59,1.48,.59,.78,0,1.47-.2,2.07-.61l1.68,4.74Z"/><path class="b" d="M155.52,12.19h10.41v5.2h-10.41v-5.2Z"/><path d="M181.04,18.32h-3.85v6.63h-7.06V0h11.41c2.26,0,4.22,.38,5.88,1.12,1.66,.75,2.95,1.82,3.85,3.21,.9,1.39,1.35,3.02,1.35,4.9s-.42,3.38-1.27,4.72c-.84,1.34-2.05,2.39-3.62,3.16l5.38,7.84h-7.56l-4.53-6.63Zm3.35-11.8c-.74-.64-1.83-.96-3.28-.96h-3.92v7.31h3.92c1.45,0,2.54-.31,3.28-.94s1.11-1.53,1.11-2.69-.37-2.07-1.11-2.71Z"/><path d="M196.51,0h11.8c2.73,0,5.16,.51,7.27,1.53s3.75,2.47,4.92,4.35c1.16,1.88,1.75,4.08,1.75,6.59s-.58,4.72-1.75,6.59c-1.16,1.88-2.8,3.33-4.92,4.35-2.12,1.02-4.54,1.53-7.27,1.53h-11.8V0Zm11.51,19.32c2.14,0,3.86-.61,5.15-1.82s1.94-2.89,1.94-5.03-.65-3.81-1.94-5.03-3.01-1.82-5.15-1.82h-4.46v13.69h4.46Z"/><path d="M250.41,0l-10.69,24.95h-6.95L222.1,0h7.63l6.77,16.25L243.42,0h6.99Z"/></svg>